<svg xmlns="http://www.w3.org/2000/svg" width="250" height="250" viewBox="0 0 250 250">
  <defs>
    <style>
      .cls-1 {
        fill: #333;
        fill-rule: evenodd;
      }
    </style>
  </defs>
  <path id="圆角矩形_1" data-name="圆角矩形 1" class="cls-1" d="M57,1H194a30,30,0,0,1,30,30V219a30,30,0,0,1-30,30H57a30,30,0,0,1-30-30V31A30,30,0,0,1,57,1Zm75.326,34a14.836,14.836,0,1,1-14.817,14.836A14.826,14.826,0,0,1,132.326,35Zm10.786,163.472a8.72,8.72,0,0,1-7.26,2.272,9.593,9.593,0,0,1-7.317-4.789q-2.278-4.008-.575-14.9l14.192-90.773-4.788-.743-37.91,8.869L100.3,102.9q6.087-.98,7.6-0.745,4.281,0.665,5.513,1.881a9.935,9.935,0,0,1,3.075,5.093q0.7,2.932-.529,10.819L107.7,172.783q-2.632,16.008-1.066,22.918a21.028,21.028,0,0,0,6.488,11.329,22.494,22.494,0,0,0,11.853,5.493,22.831,22.831,0,0,0,17.845-4.35q7.89-5.894,11.841-22.081l-5.04-.781Q146.465,195.594,143.112,198.472Z"/>
</svg>
