<svg xmlns="http://www.w3.org/2000/svg" width="500" height="500" viewBox="0 0 500 500">
  <defs>
    <style>
      .cls-1 {
        fill: #333;
        fill-rule: evenodd;
      }
    </style>
  </defs>
  <path id="圆角矩形_1" data-name="圆角矩形 1" class="cls-1" d="M113.244,1.919H390.6A57.582,57.582,0,0,1,448.177,59.5V441.459A57.582,57.582,0,0,1,390.6,499.04H113.244a57.581,57.581,0,0,1-57.582-57.581V59.5A57.582,57.582,0,0,1,113.244,1.919Zm151.631,63.82a33.589,33.589,0,1,1-33.589,33.589A33.589,33.589,0,0,1,264.875,65.739Zm-65.739,133.4,74.376-16.794,14.876,10.076L264.4,359.037s-4.587,18.035-4.8,26.76,3.952,25.5,17.754,18.234c13.425-7.071,23.033-27.352,23.033-27.352l10.556,0.96s-11.776,35.75-35.028,49.9c-28.769,17.513-53.4-1.152-59.981-14.875-8.7-18.132-8.635-38.275-3.839-71.5s16.315-105.087,16.315-105.087,3.256-15.628-3.839-21.593c-8.938-7.514-24.472-2.879-24.472-2.879Z"/>
</svg>
