<svg xmlns="http://www.w3.org/2000/svg" width="1000" height="1000" viewBox="0 0 1000 1000">
  <defs>
    <style>
      .cls-1 {
        fill: #333;
        fill-rule: evenodd;
      }
    </style>
  </defs>
  <path id="圆角矩形_1" data-name="圆角矩形 1" class="cls-1" d="M232.531,1.993h544a120,120,0,0,1,120,120V876.984a120,120,0,0,1-120,120h-544a120,120,0,0,1-120-120V121.993A120,120,0,0,1,232.531,1.993Zm164.493,409.73,154.005-34.66,32.935,38.211L536.341,739.616s-8.138,37.719,3.706,59.631c10.856,20.087,40.846,3.259,61.489-29.867l27.532-.48s-28.562,73.939-76.5,101.3c-46.492,26.532-87.374,13.442-111.377-14.883s-36.643-76.773-29.09-133.941,36.87-237.638,36.87-237.638,8.781-30.709-8.26-44.167-39.847-5.761-39.847-5.761ZM530.5,124.38a75.5,75.5,0,1,1-75.5,75.5A75.5,75.5,0,0,1,530.5,124.38Z"/>
</svg>
