<svg xmlns="http://www.w3.org/2000/svg" width="60" height="60" viewBox="0 0 60 60">
  <defs>
    <style>
      .cls-1 {
        fill-rule: evenodd;
      }
    </style>
  </defs>
  <circle id="椭圆_1_拷贝" data-name="椭圆 1 拷贝" cx="30" cy="30.953" r="3.594"/>
  <circle id="椭圆_1_拷贝_3" data-name="椭圆 1 拷贝 3" cx="30" cy="18.734" r="3.594"/>
  <circle id="椭圆_1_拷贝_2" data-name="椭圆 1 拷贝 2" cx="30" cy="43.141" r="3.594"/>
  <path id="圆角矩形_7" data-name="圆角矩形 7" class="cls-1" d="M29.811,0.377A15.849,15.849,0,0,1,45.66,16.226V43.774a15.849,15.849,0,0,1-31.7,0V16.226A15.849,15.849,0,0,1,29.811.377Zm0,1.509a14.34,14.34,0,0,1,14.34,14.34V43.774a14.34,14.34,0,0,1-28.679,0V16.226A14.34,14.34,0,0,1,29.811,1.887Z"/>
</svg>
